# xmcd
#
# Track frame offsets:
#	180
#	16452
#	28793
#	43423
#	57675
#	70976
#	82126
#	96065
#	106296
#	116390
#
# Disc length: 1809 seconds
#
# Revision: 0
# Processed by: cddbd v1.5PL3 Copyright (c) Steve Scherf et al.
# Submitted via: dBpowerAMP V4.0
#
DISCID=8c070f0a
DTITLE=Mariachi Nuevo Tecatitlan - Las Cumbias Del Mariachi
DYEAR=1900
DGENRE=Latin
TTITLE0=No Pidas Mas Perdón
TTITLE1=La Pollera Colorá
TTITLE2=Cumbia Arabe
TTITLE3=Jugo de Piña
TTITLE4=El Pipiripau
TTITLE5=El Bodeguero
TTITLE6=El Negro José
TTITLE7=El Mariachi Loco
TTITLE8=Cascarita de Limón
TTITLE9=Cumbia de los Pajaritos
EXTD=
EXTT0=
EXTT1=
EXTT2=
EXTT3=
EXTT4=
EXTT5=
EXTT6=
EXTT7=
EXTT8=
EXTT9=
PLAYORDER=
